<svg id="Layer_1" data-name="Layer 1" xmlns="http://www.w3.org/2000/svg" viewBox="0 0 313 247"><defs><style>.cls-1{fill:#2cb71d;}.cls-2{fill:#fff;}.cls-3{fill:none;}.cls-4{fill:#158918;}</style></defs><title>dog-photo-green</title><circle class="cls-1" cx="123.5" cy="123.5" r="123.5"/><path class="cls-2" d="M562.57,363.51c2.16-17,14.2-29.62,26.46-41.08A33.37,33.37,0,0,1,604.22,314c4.68-1.11,9.29-1.15,13.76.85,1.37.61,2.43.87,3.9-.14,9.17-6.33,19.57-8.15,30.47-7.92,9.83.21,19.1,2.36,27.3,8.07a2.84,2.84,0,0,0,3.19.18c6.37-2.83,12.74-2.26,18.89.59a37.37,37.37,0,0,1,8.33,5,91.34,91.34,0,0,1,26,34.69c1.87,4.47,3.1,9.2,2.45,14.11-1.19,9-7.78,16.08-16.89,18.42-1.5.38-3.68.43-4.25,1.39s.38,2.94.65,4.48c1.63,9.19,2.08,18.42.26,27.61-2.91,14.72-11.47,25.1-25,31.46-9.34,4.4-19.31,6.3-29.49,7a166,166,0,0,1-33.2-.72c-11.62-1.57-22.7-4.7-32.16-12.05-10.32-8-15.32-18.88-16.33-31.66a78.56,78.56,0,0,1,1.51-23.73c.6-2.65.52-2.77-2.29-3.33a22.79,22.79,0,0,1-16.48-12,20.3,20.3,0,0,1-2.32-5.72A22.23,22.23,0,0,1,562.57,363.51Zm93.34,74.79c0,3,.05,6,0,9,0,1.73.7,2.35,2.34,2.19,2.73-.25,5.47-.39,8.19-.7,8.72-1,17.25-2.7,25-7.06,8.39-4.71,13.89-11.62,16.09-21.07,2.63-11.27,1.46-22.37-2.09-33.14q-6.36-19.26-13.79-38.15a92.25,92.25,0,0,0-8.54-16.17,31.89,31.89,0,0,0-21.34-14.64,65.44,65.44,0,0,0-15.93-1c-12.19.75-21.9,6.34-28.5,16.75a71.63,71.63,0,0,0-6.8,12.71c-5.26,13.85-10.22,27.82-15.06,41.83a62.38,62.38,0,0,0-3,22.35c.5,16.51,8.27,27.56,23.61,33.42,8.63,3.3,17.72,4.16,26.83,4.87,1.84.15,2.57-.49,2.54-2.41-.08-5.34-.13-10.7,0-16.05.07-2.46-.48-3.91-2.92-5.16a26.86,26.86,0,0,1-12-12.45c-4.8-9.82-.16-18.88,10.67-20a96.76,96.76,0,0,1,18.72,0c9.36.84,14.21,7.56,12.27,16.22a20,20,0,0,1-2.25,5.36,27.83,27.83,0,0,1-11.65,11.25c-1.73.87-2.52,1.89-2.41,3.87C656,432.82,655.9,435.56,655.91,438.3Zm-82.86-71.56a26.46,26.46,0,0,0,1.4,4.75c2.43,4.66,6.71,6.35,11.64,6.59.72,0,1.76-.91,2.17-1.66a37.39,37.39,0,0,0,1.67-4.36c6.12-15.85,10-32.68,20.51-46.6a4,4,0,0,0,.42-1.39,5.35,5.35,0,0,0-1.5-.25,21.51,21.51,0,0,0-11.6,5.18c-9.66,8.4-17.49,18.24-22.55,30.07A56.85,56.85,0,0,0,573.05,366.74Zm154.85,0a17.41,17.41,0,0,0-.29-2.85,30,30,0,0,0-1.63-5.21A85.27,85.27,0,0,0,703.55,329a21.57,21.57,0,0,0-10.82-5.09,10.33,10.33,0,0,0-2.28.12,9,9,0,0,0,.83,2c5.86,7.95,9.7,16.9,13,26.1,2.6,7.22,5.16,14.44,7.77,21.65,1.8,5,1.82,5,7,3.69A11.23,11.23,0,0,0,727.9,366.77Zm-77.42,50.85a6,6,0,0,0,1.39-.19,17.75,17.75,0,0,0,10-10.37c.63-1.75-.48-2.63-2.15-2.94a49,49,0,0,0-17.82,0c-2.76.52-3.1,1.5-1.93,4.16a18,18,0,0,0,8.55,8.74A10,10,0,0,0,650.48,417.62Z" transform="translate(-527 -260)"/><path class="cls-2" d="M675.49,371.05a7.18,7.18,0,0,1-7,7.33,7.39,7.39,0,0,1-7.07-7.34,7,7,0,0,1,6.9-7A6.69,6.69,0,0,1,675.49,371.05Z" transform="translate(-527 -260)"/><path class="cls-2" d="M625.81,371.28a6.65,6.65,0,0,1,6.54-7.15,6.74,6.74,0,0,1,7.31,6.84,7.24,7.24,0,0,1-7,7.37A7.14,7.14,0,0,1,625.81,371.28Z" transform="translate(-527 -260)"/><rect class="cls-3" x="159" width="154" height="40" rx="9.7" ry="9.7"/><circle class="cls-4" cx="199" cy="20" r="20"/><path class="cls-2" d="M720.84,289.29l-6.2-6.19,2.07-2.07,4.13,4.13,14.45-14.45,2.07,2.06Z" transform="translate(-527 -260)"/></svg>