<svg id="Layer_1" data-name="Layer 1" xmlns="http://www.w3.org/2000/svg" viewBox="0 0 498.03 261.96"><defs><style>.cls-1{fill:#fff;}.cls-2{fill:none;stroke:#fff;stroke-linecap:round;stroke-linejoin:round;stroke-width:5px;}</style></defs><title>dogs-playing</title><path class="cls-1" d="M1573,333.51l-69.6,30.79.28.63q9.43,21.32,18.86,42.63a9.67,9.67,0,0,1-4.37,12.57,9.19,9.19,0,0,1-9.19-.49,9.3,9.3,0,0,1-3.86-4.4q-17.88-40.47-35.78-80.92a1.44,1.44,0,0,0-.89-.85q-6.84-2.7-13.66-5.43a5.62,5.62,0,0,1-3.86-5.33,6.32,6.32,0,0,1,3.39-6,5.42,5.42,0,0,1,4.62-.19c3.79,1.39,7.57,2.83,11.36,4.25,1,.36,1.89.74,2.85,1a1.45,1.45,0,0,0,.92,0q4.26-1.85,8.48-3.73l49.53-21.9a3.07,3.07,0,0,1,1.3-.25q25.56,1.14,51.1,2.31a1,1,0,0,1,1,.65,16.66,16.66,0,0,1,1.1,4.71c1.28,7.28,2.53,14.57,3.8,21.86a3.42,3.42,0,0,0,.28.89q9.49,21.52,19,43a9.49,9.49,0,0,1-16.53,9.16,12.2,12.2,0,0,1-1-1.87q-9.39-21.19-18.76-42.39Z" transform="translate(-1450.97 -159.18)"/><path class="cls-1" d="M1539.68,286.48c-.11-1.48-.22-2.92-.33-4.36q-1.1-14.69-2.2-29.38a2.79,2.79,0,0,0-.24-.9l-7.21-16.32-.31-.69c.88,0,1.68-.09,2.47-.05a21.11,21.11,0,0,1,12.16,4.74c.62.47,1.22,1,1.79,1.52a.59.59,0,0,0,.77.13q5.36-2.4,10.72-4.75a2.46,2.46,0,0,1,.9-.2l33.16-1.21h.52c0,.65,0,1.29,0,1.93-.13,6.24-.22,12.48-.43,18.72a12.23,12.23,0,0,1-2.05,5.92,11.69,11.69,0,0,1-5.37,4.65c-3.4,1.49-6.79,3-10.19,4.5l-.64.28,7.7,17.4Zm19.76-37.17a3.76,3.76,0,0,0,6.91-3,4,4,0,0,0-4.95-2A4,4,0,0,0,1559.44,249.31Z" transform="translate(-1450.97 -159.18)"/><path class="cls-1" d="M1511.84,367.51l.5-.22c2.94-1.3,5.88-2.59,8.81-3.9a.67.67,0,0,1,.83.09q15.3,11.92,30.62,23.82c.82.65,1.68,1.24,2.46,1.94a8.84,8.84,0,0,1,2.74,9.21,8.52,8.52,0,0,1-5.3,6.42,9.46,9.46,0,0,1-9.68-1.39c-7.65-5.9-15.23-11.88-22.83-17.84a1.16,1.16,0,0,1-.35-.44q-3.86-8.7-7.7-17.42C1511.91,367.72,1511.89,367.65,1511.84,367.51Z" transform="translate(-1450.97 -159.18)"/><path class="cls-1" d="M1756.38,181.54a1.86,1.86,0,0,0-1,2c.11,5.94.15,11.87.27,17.81a2.51,2.51,0,0,1-.84,2q-19.45,19.49-38.85,39l-1,1c.21.28.37.53.56.74q9.87,10.73,19.74,21.44a6.31,6.31,0,0,0,8.91.72c3.21-2.47,6.39-5,9.59-7.45l1-.75,12.11,12.51,39-36.26c-.35-.37-.63-.7-.93-1l-46.48-50.44c-.41-.44-.85-.85-1.27-1.27Z" transform="translate(-1450.97 -159.18)"/><path class="cls-1" d="M1815.63,243.82c-.33.29-.6.52-.87.77q-19.37,17.88-38.75,35.76a2.18,2.18,0,0,0-.76,1.75q-.23,15.27-.48,30.56-.45,25.69-.91,51.4-.25,14.67-.49,29.34c0,.33,0,.66,0,1.13,9.73.19,19.4.17,29.17.38.14-2.33,0-4.57.07-6.81s0-4.52,0-6.78V326.89h1.1q34.86,0,69.73,0a1.94,1.94,0,0,1,1.56.7q14.6,15.65,29.23,31.27a1.73,1.73,0,0,1,.53,1.34q-.27,11.38-.51,22.77-.15,6.32-.29,12.64v.77c.79.22,24.29.29,25.78.09a6.32,6.32,0,0,0,.1-.65q.3-8.55.59-17.09.49-14.37,1-28.73.35-10.11.67-20.22c0-1.18.05-2.37.15-3.54a2.88,2.88,0,0,0-.68-2.22c-2-2.5-3.92-5.07-5.9-7.59a2.38,2.38,0,0,1-.53-1.66q.38-14.88.72-29.75c.11-4.89.26-9.77.35-14.66a1.69,1.69,0,0,1,.75-1.34l15.1-13.62c1.81-1.63,3.58-3.29,5.42-4.87a3.87,3.87,0,0,0,1.39-4.17,8.69,8.69,0,0,0-6.18-6.49,5,5,0,0,0-4.76,1c-2,1.61-4,3.22-5.85,5-4.72,4.49-9.36,9.06-14,13.62a2.29,2.29,0,0,1-1.85.74c-5.77-.2-11.53-.34-17.3-.51l-25.29-.75q-7.93-.23-15.88-.47l-22.55-.74c-1,0-1.89-.08-2.84-.08a10.62,10.62,0,0,1-6.48-2.21,27.66,27.66,0,0,1-5.11-5c-1.5-1.86-2.94-3.78-4.41-5.67C1816.13,244.44,1815.9,244.16,1815.63,243.82Z" transform="translate(-1450.97 -159.18)"/><line class="cls-2" x1="132.99" y1="42.15" x2="152.08" y2="2.5"/><line class="cls-2" x1="164.17" y1="49.07" x2="194.9" y2="17.58"/><line class="cls-2" x1="163.04" y1="88.03" x2="206.03" y2="78.62"/></svg>