<svg id="Layer_1" data-name="Layer 1" xmlns="http://www.w3.org/2000/svg" viewBox="0 0 132 132"><defs><style>.cls-1{fill:#d67216;}.cls-2{fill:#fff;}</style></defs><title>go</title><circle class="cls-1" cx="66" cy="66" r="66"/><path class="cls-2" d="M656.34,401a21.66,21.66,0,0,1-7.45-1.26,18.42,18.42,0,0,1-6.08-3.6,16.75,16.75,0,0,1-4.08-5.59,17.1,17.1,0,0,1-1.48-7.19v-.1a17.53,17.53,0,0,1,1.41-7,17,17,0,0,1,3.93-5.64,18.36,18.36,0,0,1,6-3.71,20.34,20.34,0,0,1,7.45-1.34,21.88,21.88,0,0,1,8,1.36,20.79,20.79,0,0,1,6.29,3.79l-6.36,7.68a14.4,14.4,0,0,0-3.55-2.19,10.14,10.14,0,0,0-4-.78,7.74,7.74,0,0,0-3.06.61,7.55,7.55,0,0,0-2.43,1.68,7.41,7.41,0,0,0-1.57,2.52,8.77,8.77,0,0,0-.56,3.21v.1a8.81,8.81,0,0,0,.6,3.3,7.69,7.69,0,0,0,1.68,2.58,7.39,7.39,0,0,0,2.55,1.65,8.86,8.86,0,0,0,3.28.58,11.16,11.16,0,0,0,2.33-.19,5.87,5.87,0,0,0,1.56-.58v-3.41h-5.83v-7.24h16.47v15.71a22.4,22.4,0,0,1-6.56,3.68A24.1,24.1,0,0,1,656.34,401Z" transform="translate(-616 -318)"/><path class="cls-2" d="M692.4,401a19.29,19.29,0,0,1-7.31-1.36,18.34,18.34,0,0,1-5.88-3.74,17.16,17.16,0,0,1-3.92-5.61,17.34,17.34,0,0,1-1.4-6.93v-.1a16.82,16.82,0,0,1,1.43-6.92,17.84,17.84,0,0,1,3.93-5.64,18.67,18.67,0,0,1,5.91-3.79,20.27,20.27,0,0,1,14.65,0,18.63,18.63,0,0,1,5.88,3.74A17.17,17.17,0,0,1,711,383.2v.09a17,17,0,0,1-1.43,6.93,17.87,17.87,0,0,1-3.94,5.64,18.73,18.73,0,0,1-5.9,3.79A19.37,19.37,0,0,1,692.4,401Zm.1-10.06a6.64,6.64,0,0,0,2.91-.63,7,7,0,0,0,2.24-1.68,7.38,7.38,0,0,0,1.41-2.4,8.56,8.56,0,0,0,.48-2.87v-.1a8.34,8.34,0,0,0-.51-2.89A8,8,0,0,0,697.6,378a6.86,6.86,0,0,0-2.24-1.7,7.17,7.17,0,0,0-5.88,0,6.91,6.91,0,0,0-2.23,1.68,7,7,0,0,0-1.41,2.4,8.32,8.32,0,0,0-.49,2.87v.09a8.35,8.35,0,0,0,.51,2.9,7.8,7.8,0,0,0,1.44,2.45,6.66,6.66,0,0,0,5.2,2.33Z" transform="translate(-616 -318)"/><path class="cls-2" d="M713.88,373.58v-7.29h12.34v7.29l-3.4,16.13h-5.54Zm.53,18h11.27v8.74H714.41Z" transform="translate(-616 -318)"/></svg>