<svg id="Layer_1" data-name="Layer 1" xmlns="http://www.w3.org/2000/svg" viewBox="0 0 101 87.88"><defs><style>.cls-1{fill:#fff;}</style></defs><title>logo</title><path class="cls-1" d="M1665.16,313.56c1.24-9.75,8.13-17,15.15-23.52a19.05,19.05,0,0,1,8.7-4.84,12,12,0,0,1,7.87.48,2,2,0,0,0,2.24-.08c5.24-3.62,11.2-4.66,17.44-4.53,5.62.12,10.93,1.35,15.63,4.62a1.63,1.63,0,0,0,1.83.1,12.6,12.6,0,0,1,10.81.34,21.52,21.52,0,0,1,4.77,2.87,52.48,52.48,0,0,1,14.9,19.86,15.61,15.61,0,0,1,1.4,8.08,12.59,12.59,0,0,1-9.67,10.54c-.85.22-2.11.25-2.43.8s.22,1.69.37,2.56a42.67,42.67,0,0,1,.15,15.81c-1.66,8.43-6.56,14.37-14.3,18a46.35,46.35,0,0,1-16.88,4,95.13,95.13,0,0,1-19-.42c-6.65-.89-13-2.68-18.41-6.9-5.91-4.59-8.77-10.8-9.35-18.12a44.93,44.93,0,0,1,.87-13.58c.34-1.52.29-1.59-1.32-1.91a13,13,0,0,1-9.43-6.86,11.54,11.54,0,0,1-1.33-3.28A13,13,0,0,1,1665.16,313.56Zm53.43,42.81c0,1.72,0,3.44,0,5.16,0,1,.4,1.34,1.34,1.26,1.56-.15,3.13-.23,4.69-.41,5-.57,9.87-1.54,14.32-4a18,18,0,0,0,9.21-12.06,34.49,34.49,0,0,0-1.2-19q-3.63-11-7.89-21.84a53.23,53.23,0,0,0-4.89-9.26,18.26,18.26,0,0,0-12.21-8.38,37.2,37.2,0,0,0-9.12-.57,19.89,19.89,0,0,0-16.32,9.59,41.09,41.09,0,0,0-3.89,7.28c-3,7.93-5.85,15.93-8.62,23.94a35.56,35.56,0,0,0-1.73,12.8c.29,9.45,4.73,15.77,13.52,19.13,4.93,1.89,10.14,2.38,15.35,2.79,1.06.08,1.48-.28,1.46-1.38,0-3.06-.08-6.13,0-9.19a2.7,2.7,0,0,0-1.67-3,15.34,15.34,0,0,1-6.88-7.13c-2.75-5.62-.1-10.81,6.11-11.47a55.54,55.54,0,0,1,10.71,0c5.36.49,8.14,4.33,7,9.29a11.29,11.29,0,0,1-1.28,3.07,15.87,15.87,0,0,1-6.67,6.44,2.07,2.07,0,0,0-1.38,2.22C1718.66,353.23,1718.59,354.8,1718.59,356.37Zm-47.43-41a15.67,15.67,0,0,0,.8,2.73c1.39,2.66,3.84,3.63,6.67,3.77.41,0,1-.52,1.24-.95a19.79,19.79,0,0,0,1-2.5c3.51-9.07,5.74-18.71,11.75-26.68a2.51,2.51,0,0,0,.24-.79,2.92,2.92,0,0,0-.86-.14,12.25,12.25,0,0,0-6.64,3A47.6,47.6,0,0,0,1672.4,311,33.09,33.09,0,0,0,1671.16,315.4Zm88.65,0a9.22,9.22,0,0,0-.17-1.63,16.9,16.9,0,0,0-.93-3,48.82,48.82,0,0,0-12.84-17,12.45,12.45,0,0,0-6.19-2.92,5.79,5.79,0,0,0-1.31.07,4.65,4.65,0,0,0,.48,1.17,57.69,57.69,0,0,1,7.45,14.94c1.49,4.13,3,8.27,4.44,12.4,1,2.85,1,2.84,4,2.11A6.43,6.43,0,0,0,1759.81,315.42Zm-44.32,29.11a3,3,0,0,0,.8-.11,10.13,10.13,0,0,0,5.7-5.93c.36-1-.27-1.51-1.23-1.68a28,28,0,0,0-10.2,0c-1.58.29-1.77.86-1.1,2.38a10.29,10.29,0,0,0,4.89,5A5.79,5.79,0,0,0,1715.49,344.53Z" transform="translate(-1665 -281.06)"/><path class="cls-1" d="M1729.81,317.87a4.12,4.12,0,0,1-4,4.2,4.23,4.23,0,0,1-4-4.2,4,4,0,0,1,4-4A3.83,3.83,0,0,1,1729.81,317.87Z" transform="translate(-1665 -281.06)"/><path class="cls-1" d="M1701.37,318a3.8,3.8,0,0,1,3.74-4.1,3.86,3.86,0,0,1,4.18,3.92,4.15,4.15,0,0,1-4,4.22A4.09,4.09,0,0,1,1701.37,318Z" transform="translate(-1665 -281.06)"/></svg>