<svg id="Layer_1" data-name="Layer 1" xmlns="http://www.w3.org/2000/svg" xmlns:xlink="http://www.w3.org/1999/xlink" viewBox="0 0 76.76 133"><defs><style>.cls-1{fill:none;}.cls-2{fill:#d67216;}.cls-3{fill:url(#New_Pattern_Swatch_8);}.cls-4{fill:#fff;}</style><pattern id="New_Pattern_Swatch_8" data-name="New Pattern Swatch 8" width="131" height="131" patternTransform="translate(468.76 178.96) scale(0.76)" patternUnits="userSpaceOnUse" viewBox="0 0 131 131"><rect class="cls-1" width="131" height="131"/><rect class="cls-2" width="131" height="131"/></pattern></defs><title>orange-marker</title><path class="cls-3" d="M721.88,355.38c0,21.2-38.38,94.62-38.38,94.62s-38.38-73.42-38.38-94.62a38.38,38.38,0,0,1,76.76,0Z" transform="translate(-645.12 -317)"/><path class="cls-4" d="M675.1,373a14.49,14.49,0,0,1-1.46-.29,3.89,3.89,0,0,1-2.68-5.14,14.27,14.27,0,0,1,1.15-2.44,57.62,57.62,0,0,1,4.72-7,24.27,24.27,0,0,1,2.11-2.3,6.73,6.73,0,0,1,3.81-1.69,9.52,9.52,0,0,1,4.84.51,7.35,7.35,0,0,1,2.87,2.27,54.38,54.38,0,0,1,6.48,9.45,4.79,4.79,0,0,1,.58,3.39,3.77,3.77,0,0,1-3,3c-.4.1-.81.16-1.22.23h-1.61a8.53,8.53,0,0,1-1.43-.35c-.78-.33-1.52-.75-2.29-1.11a10.36,10.36,0,0,0-5.83-.54,5.91,5.91,0,0,0-2.36.92,7.81,7.81,0,0,1-3,1.08Z" transform="translate(-645.12 -317)"/><path class="cls-4" d="M682.62,342.34a11,11,0,0,1-1.49,5.72,5.06,5.06,0,0,1-2.84,2.42,3.81,3.81,0,0,1-4.1-1.36,8.88,8.88,0,0,1-2.11-4.73,11.87,11.87,0,0,1,1-7.26,6.32,6.32,0,0,1,1.82-2.31,3.72,3.72,0,0,1,5,.22,7.7,7.7,0,0,1,2.26,3.94c.27,1.1.38,2.23.56,3.34Z" transform="translate(-645.12 -317)"/><path class="cls-4" d="M684.36,342.71a11.15,11.15,0,0,1,1.87-6.74,4.69,4.69,0,0,1,2.48-1.88,3.85,3.85,0,0,1,4.1,1.38,9.11,9.11,0,0,1,2.16,5.16,11.6,11.6,0,0,1-1,6.79,6.4,6.4,0,0,1-1.87,2.38,3.73,3.73,0,0,1-5-.27,8.37,8.37,0,0,1-2.41-4.62C684.48,344.05,684.42,343.17,684.36,342.71Z" transform="translate(-645.12 -317)"/><path class="cls-4" d="M692.8,354.59c.3-3.27,1.54-6,4.48-7.85a3.43,3.43,0,0,1,2.89-.45,3.35,3.35,0,0,1,2.25,2.79,8.68,8.68,0,0,1-1.18,6.11,7.72,7.72,0,0,1-3.34,3.35A3.24,3.24,0,0,1,693,356C692.89,355.58,692.86,355.11,692.8,354.59Z" transform="translate(-645.12 -317)"/><path class="cls-4" d="M674.21,354.7a18.45,18.45,0,0,1-.34,1.83,3.13,3.13,0,0,1-4.55,2.12,7.42,7.42,0,0,1-3.18-2.82,9.49,9.49,0,0,1-1.71-5.59,6.56,6.56,0,0,1,.3-1.76,3.12,3.12,0,0,1,4.51-2,7.42,7.42,0,0,1,3.18,2.82A10.61,10.61,0,0,1,674.21,354.7Z" transform="translate(-645.12 -317)"/></svg>