<svg id="Layer_1" data-name="Layer 1" xmlns="http://www.w3.org/2000/svg" xmlns:xlink="http://www.w3.org/1999/xlink" viewBox="0 0 114 114"><defs><style>.cls-1{fill:none;}.cls-2{fill:#d67216;}.cls-3{fill:url(#New_Pattern_Swatch_8);}.cls-4{fill:#fff;}</style><pattern id="New_Pattern_Swatch_8" data-name="New Pattern Swatch 8" width="131" height="131" patternTransform="translate(-886 -468)" patternUnits="userSpaceOnUse" viewBox="0 0 131 131"><rect class="cls-1" width="131" height="131"/><rect class="cls-2" width="131" height="131"/></pattern></defs><title>orange-doghouse</title><circle class="cls-3" cx="57" cy="57" r="57"/><path class="cls-4" d="M659.94,383c-.23.2-.46.38-.68.59-2.23,2.2-4.47,4.39-6.68,6.62-.45.44-.72.46-1.17,0-1.92-2-3.88-3.91-5.83-5.85-.77-.77-.77-.78,0-1.52l35.58-35.27c.43-.43.89-.84,1.29-1.3s.69-.44,1.11,0c2.3,2.31,4.63,4.6,7,6.9l30,29.72c.71.71.71.71,0,1.42-2,2-3.94,3.92-5.89,5.9-.44.45-.71.47-1.16,0-2.39-2.43-4.82-4.84-7.24-7.25-.2-.19-.45-.33-.82-.61-.11,1.22-.21,2.22-.29,3.23q-.72,9.25-1.44,18.52-.68,8.65-1.35,17.3c0,.41-.17.6-.6.6-2.73,0-5.46,0-8.18,0-.65,0-.6-.39-.6-.81v-9.56c0-3.9,0-7.8,0-11.7a9.9,9.9,0,1,0-19.8.05c0,7,0,13.92,0,20.88,0,1.13,0,1.13-1.17,1.13-2.63,0-5.25,0-7.88,0-.61,0-.85-.18-.89-.8-.3-4.14-.63-8.28-.94-12.43q-.66-8.54-1.3-17.07-.27-3.63-.56-7.24c0-.47-.1-.94-.15-1.4Z" transform="translate(-626 -327)"/></svg>