<svg id="Layer_1" data-name="Layer 1" xmlns="http://www.w3.org/2000/svg" xmlns:xlink="http://www.w3.org/1999/xlink" viewBox="0 0 726 159"><defs><style>.cls-1{fill:none;}.cls-2{fill:#46217f;}.cls-3{fill:#562696;}.cls-4{clip-path:url(#clip-path);}.cls-5{fill:url(#New_Pattern_Swatch_6);}.cls-6{fill:url(#New_Pattern_Swatch_12);}</style><clipPath id="clip-path"><rect class="cls-1" width="726" height="159"/></clipPath><pattern id="New_Pattern_Swatch_6" data-name="New Pattern Swatch 6" width="131" height="131" patternTransform="translate(965 -135)" patternUnits="userSpaceOnUse" viewBox="0 0 131 131"><rect class="cls-1" width="131" height="131"/><rect class="cls-3" width="131" height="131"/></pattern><pattern id="New_Pattern_Swatch_12" data-name="New Pattern Swatch 12" width="110" height="110" patternTransform="translate(69 -132)" patternUnits="userSpaceOnUse" viewBox="0 0 110 110"><rect class="cls-1" width="110" height="110"/><rect class="cls-2" width="110" height="110"/></pattern></defs><title>signup-collar</title><g class="cls-4"><path class="cls-5" d="M365,159C211.57,159,68,136.2-29,96.45A50,50,0,0,1-56.26,31.21,50,50,0,0,1,9,3.92c40.19,16.49,92.8,30.23,152.14,39.73C224.65,53.84,293.25,59,365,59s140.12-5.15,203.58-15.3c59.27-9.48,111.85-23.18,152.06-39.62a50,50,0,0,1,37.84,92.57C661.55,136.27,518.14,159,365,159Z"/><path class="cls-6" d="M727.93,67.44a12.5,12.5,0,0,1-4.42-24.19c3.84-1.46,7.65-3,11.32-4.45a12.5,12.5,0,1,1,9.46,23.14c-3.87,1.58-7.89,3.16-11.94,4.69A12.5,12.5,0,0,1,727.93,67.44Z"/><path class="cls-6" d="M605.24,100.57a12.5,12.5,0,0,1-2.3-24.78c8.33-1.58,16.61-3.25,24.61-5a12.5,12.5,0,1,1,5.28,24.43c-8.21,1.78-16.7,3.5-25.26,5.11A12.33,12.33,0,0,1,605.24,100.57Z"/><path class="cls-6" d="M365,121.5q-6.56,0-13.06-.06a12.5,12.5,0,0,1,.11-25h.11c8.38.07,16.85.07,25.23,0h.11a12.5,12.5,0,0,1,.1,25Q371.32,121.5,365,121.5Zm114.15-4.44a12.5,12.5,0,0,1-1-25c8.42-.67,16.86-1.42,25.11-2.23a12.5,12.5,0,0,1,2.45,24.88c-8.4.83-17,1.59-25.58,2.27C479.81,117.05,479.48,117.06,479.15,117.06Zm-228.76,0c-.33,0-.67,0-1,0-8.55-.69-17.15-1.45-25.59-2.29a12.5,12.5,0,1,1,2.46-24.88c8.28.82,16.73,1.58,25.11,2.24a12.5,12.5,0,0,1-1,25ZM124.3,100.48a12.51,12.51,0,0,1-2.34-.22c-8.54-1.61-17-3.34-25.27-5.12A12.5,12.5,0,0,1,102,70.71c8,1.73,16.29,3.41,24.62,5a12.5,12.5,0,0,1-2.31,24.78Z"/><path class="cls-6" d="M1.62,67.27a12.55,12.55,0,0,1-4.43-.81c-4.05-1.54-8.06-3.12-11.93-4.71a12.51,12.51,0,0,1-6.83-16.31A12.51,12.51,0,0,1-5.26,38.62c3.67,1.5,7.47,3,11.32,4.46A12.5,12.5,0,0,1,1.62,67.27Z"/></g></svg>